<?xml version="1.0" encoding="utf-8"?>
<!-- Generator: Adobe Illustrator 27.9.0, SVG Export Plug-In . SVG Version: 6.00 Build 0)  -->
<svg version="1.1" id="Layer_1" xmlns="http://www.w3.org/2000/svg" xmlns:xlink="http://www.w3.org/1999/xlink" x="0px" y="0px"
	 viewBox="0 0 180 180" style="enable-background:new 0 0 180 180;" xml:space="preserve">
<style type="text/css">
	.st0{fill:#E1E3E7;}
	.st1{fill:#ED1C28;}
</style>
<image style="overflow:visible;enable-background:new    ;" width="160" height="160" id="Layer_0" xlink:href="B9988C422BDF6C5F.png"  transform="matrix(1 0 0 1 10 10)">
</image>
<rect x="0.1" class="st0" width="180" height="180"/>
<g>
	<path class="st1" d="M91.2,86.7c-1.4,0-2.9,0.2-4.3,0.7c-7.4,2.4-11.4,10.3-9,17.7c1.9,5.9,7.4,9.7,13.3,9.7c1.4,0,2.9-0.2,4.3-0.7
		c7.4-2.4,11.4-10.3,9-17.7C102.7,90.5,97.2,86.7,91.2,86.7z M93.8,108.6c-0.8,0.3-1.7,0.4-2.5,0.4c-3.6,0-6.7-2.3-7.8-5.7
		c-0.7-2.1-0.5-4.3,0.5-6.3c1-2,2.7-3.4,4.8-4.1c0.8-0.3,1.7-0.4,2.5-0.4c3.6,0,6.7,2.3,7.8,5.7C100.5,102.5,98.1,107.2,93.8,108.6z
		"/>
	<path class="st1" d="M165.6,111.8c-3.4-8.2-10.1-12.6-17.8-12c-4.3,0.4-7.9,2.5-11.3,4.6c-2.8,1.7-5.4,3.3-8.3,3.7
		c-2.2,0.3-4.4,0.3-6.7-0.1c-0.1,0-0.1,0-0.2,0c0.6-2.3,0.9-4.8,0.9-7.3c0-7.3-2.5-14-6.7-19.3c0.1-0.1,0.1-0.1,0.2-0.2
		c2.3-3.9,4.5-8.3,6.6-13c5.9-13.5,4.2-29.9-4.1-39.9c-6.6-8-16.5-11.1-27.9-8.5C83,21.5,69.5,26.5,64.6,33C59.2,40,58.6,48,63,54.3
		c2.5,3.6,6.1,5.6,9.6,7.5c2.9,1.6,5.5,3.1,7.3,5.3c0.9,1.2,1.7,2.5,2.4,3.9C72.6,74,64.9,81.6,61.8,91.2c-0.2-0.1-0.5-0.1-0.7-0.1
		c0,0,0,0,0,0c-4.5,0.1-9.4,0.5-14.5,1.2c-14.5,2-27.7,11.9-31.9,24.2c-3.4,9.8-0.9,19.9,7.2,28.3c5.2,5.4,16.4,14.3,24.6,15.1
		c0.9,0.1,1.8,0.1,2.7,0.1c7.6,0,13.6-3.6,16.4-9.9c1.7-4,1.6-8.1,1.4-12.1c-0.1-3.3-0.2-6.3,0.7-9c0.7-1.8,1.6-3.6,2.9-5.3
		c5.5,5,12.8,8.1,20.9,8.1c2.3,0,4.5-0.3,6.6-0.7c0,0.4,0.1,0.7,0.3,1c2.2,3.9,4.9,8,8,12.2c7.7,10.3,20.1,16.7,31.7,16.7
		c1.7,0,3.3-0.1,4.9-0.4c10.3-1.7,17.8-8.8,21.3-19.9C166.3,133.5,168.7,119.4,165.6,111.8z M75.3,57.1c-3.1-1.7-6-3.3-7.8-5.9
		c-4.3-6.2-0.5-12.5,1.4-15c3.7-4.8,15.5-9.5,22.6-11.1c11.9-2.6,18.8,2.2,22.5,6.7c7,8.5,8.4,22.6,3.3,34.3
		c-1.8,4.1-3.7,7.9-5.7,11.4c-5.5-4.8-12.6-7.7-20.4-7.7c-1.2,0-2.3,0.1-3.4,0.2c-1-2.3-2.2-4.3-3.7-6.2
		C81.7,60.8,78.4,58.9,75.3,57.1z M66.5,119.7c-1.8,2.3-3.2,4.8-4.1,7.3c-1.3,3.7-1.2,7.4-1.1,11.1c0.1,3.5,0.3,6.9-1,9.7
		c-3,6.9-10.5,6.9-13.5,6.6c-6-0.6-16.2-8.3-21.2-13.5c-8.4-8.8-7.9-17.2-6-22.7c3.6-10.4,15-18.9,27.6-20.6c4.7-0.6,9.2-1,13.4-1.1
		c-0.2,1.4-0.3,2.8-0.3,4.3c0,7.1,2.4,13.6,6.4,18.8C66.6,119.7,66.6,119.7,66.5,119.7z M91.2,126c-13.9,0-25.2-11.3-25.2-25.2
		c0-13.9,11.3-25.2,25.2-25.2c13.9,0,25.2,11.3,25.2,25.2C116.4,114.7,105.1,126,91.2,126z M159,139c-3.6,11.6-11.3,15.2-17,16.2
		c-10.9,1.9-23.8-4-31.4-14.2c-3-4-5.5-7.9-7.6-11.6c7.5-3.1,13.5-9,16.8-16.4c0.3,0.2,0.6,0.3,1,0.4c2.9,0.5,5.7,0.5,8.4,0.1
		c3.9-0.6,7.1-2.5,10.2-4.4c3-1.8,5.9-3.5,9-3.8c7.5-0.7,11.1,5.8,12.3,8.7C162.9,119.5,161.1,132.1,159,139z"/>
</g>
</svg>
